<?xml version="1.0" standalone="no"?>
<!DOCTYPE svg PUBLIC "-//W3C//DTD SVG 20010904//EN"
 "http://www.w3.org/TR/2001/REC-SVG-20010904/DTD/svg10.dtd">
<svg version="1.0" xmlns="http://www.w3.org/2000/svg"
 width="7559.000000pt" height="7559.000000pt" viewBox="0 0 7559.000000 7559.000000"
 preserveAspectRatio="xMidYMid meet">

<g transform="translate(0.000000,7559.000000) scale(0.100000,-0.100000)"
fill="#000000" stroke="none">
<path d="M37215 63564 c-1087 -32 -1967 -102 -2935 -234 -5084 -695 -9857
-2910 -13690 -6354 -605 -544 -1317 -1251 -1866 -1856 -1751 -1926 -3204
-4113 -4299 -6465 -1895 -4073 -2684 -8561 -2300 -13085 416 -4895 2223 -9554
5224 -13465 921 -1201 1999 -2372 3131 -3401 2156 -1960 4676 -3569 7335
-4684 3567 -1495 7364 -2164 11240 -1980 5699 271 11101 2407 15460 6114 808
687 1655 1507 2381 2306 2182 2400 3896 5198 5041 8230 1834 4858 2152 10232
903 15295 -1001 4061 -2982 7813 -5786 10960 -573 643 -1375 1448 -2024 2031
-1468 1319 -3085 2466 -4830 3426 -2735 1505 -5757 2504 -8860 2928 -823 112
-1574 178 -2500 220 -220 10 -1408 20 -1625 14z m1315 -3334 c2055 -72 3973
-392 5885 -980 5443 -1675 10067 -5388 12908 -10365 266 -466 654 -1220 877
-1705 1164 -2532 1841 -5233 2010 -8010 25 -411 31 -606 37 -1145 21 -2001
-204 -3885 -693 -5804 -1683 -6610 -6352 -12145 -12602 -14938 -3388 -1514
-7067 -2154 -10822 -1883 -2574 186 -5115 826 -7482 1883 -5127 2291 -9237
6452 -11465 11607 -1383 3198 -1995 6667 -1798 10185 148 2630 755 5204 1798
7615 333 772 749 1599 1169 2325 2378 4109 6011 7378 10338 9300 2631 1169
5434 1812 8340 1914 322 12 1188 12 1500 1z"/>
<path d="M35130 56535 c-7 -9 -29 -15 -54 -15 -23 0 -46 -4 -51 -9 -10 -9 -82
-28 -143 -38 -18 -3 -35 -9 -38 -14 -3 -5 -16 -9 -29 -9 -13 0 -27 -4 -30 -10
-3 -5 -15 -10 -25 -10 -10 0 -31 -6 -47 -14 -15 -8 -39 -19 -53 -24 -31 -12
-82 -37 -135 -64 -22 -11 -51 -26 -65 -32 -14 -6 -39 -21 -56 -33 -17 -13 -34
-23 -37 -23 -11 0 -122 -73 -125 -82 -2 -4 -10 -8 -17 -8 -7 0 -15 -4 -17 -8
-1 -5 -22 -23 -46 -40 -109 -78 -301 -262 -375 -359 -21 -29 -43 -53 -48 -53
-5 0 -9 -5 -9 -11 0 -7 -16 -31 -35 -55 -19 -23 -35 -46 -35 -50 0 -4 -11 -22
-25 -40 -14 -18 -25 -37 -25 -43 0 -6 -3 -11 -8 -11 -4 0 -14 -15 -21 -32 -8
-18 -21 -39 -28 -46 -7 -7 -13 -20 -13 -28 0 -8 -4 -14 -10 -14 -5 0 -10 -9
-10 -20 0 -11 -4 -20 -10 -20 -5 0 -10 -11 -10 -24 0 -13 -7 -26 -15 -30 -8
-3 -15 -12 -15 -21 0 -15 -4 -25 -28 -72 -7 -13 -12 -32 -12 -43 0 -11 -4 -20
-10 -20 -5 0 -12 -16 -16 -35 -3 -19 -10 -35 -15 -35 -5 0 -9 -16 -9 -35 0
-19 -4 -35 -10 -35 -5 0 -10 -14 -10 -31 0 -17 -5 -39 -10 -49 -34 -63 -72
-367 -71 -575 0 -210 41 -539 71 -569 6 -6 10 -25 10 -42 0 -18 5 -36 10 -39
6 -3 10 -17 10 -31 0 -24 2 -31 34 -91 9 -17 16 -41 16 -52 0 -12 5 -21 10
-21 6 0 10 -7 10 -15 0 -18 32 -89 43 -93 4 -2 7 -12 7 -22 0 -10 5 -22 10
-25 6 -3 10 -15 10 -25 0 -10 3 -20 8 -22 10 -4 54 -75 74 -118 9 -19 26 -45
37 -57 12 -12 21 -25 21 -29 0 -9 55 -85 100 -138 20 -22 47 -57 62 -76 40
-55 210 -219 288 -278 19 -15 37 -30 40 -33 7 -9 173 -124 190 -132 8 -4 33
-18 55 -31 22 -14 67 -39 100 -56 33 -17 67 -34 75 -39 8 -5 26 -13 40 -19 14
-5 36 -14 50 -19 28 -12 105 -42 135 -53 47 -17 93 -30 108 -30 10 0 25 -4 35
-9 27 -14 103 -33 152 -38 25 -2 54 -8 65 -13 49 -23 484 -30 635 -11 47 6
108 13 135 16 28 3 59 10 70 15 23 11 94 29 143 37 18 3 35 9 38 14 3 5 16 9
30 9 13 0 32 4 42 9 53 26 92 42 130 53 23 7 42 16 42 20 0 5 6 8 14 8 14 0
144 65 211 106 22 13 47 27 55 31 8 4 20 11 25 15 6 5 44 32 87 61 105 71 154
113 288 247 129 130 165 169 200 220 13 19 27 37 30 40 4 3 15 20 25 38 11 17
23 32 27 32 4 0 8 5 8 12 0 6 10 25 23 42 13 17 26 38 30 46 4 8 18 33 32 55
14 22 28 48 31 58 4 9 10 17 15 17 5 0 9 7 9 15 0 15 3 24 34 82 9 17 16 38
16 47 0 9 5 16 10 16 6 0 10 9 10 19 0 11 4 22 9 25 5 3 12 22 15 41 4 19 11
35 16 35 6 0 10 13 10 29 0 17 5 33 10 36 6 3 10 17 10 31 0 13 4 32 9 42 22
42 51 179 58 270 3 39 9 72 14 72 5 0 9 117 9 265 0 155 -4 265 -9 265 -5 0
-12 33 -14 73 -7 97 -16 146 -33 184 -8 17 -14 45 -14 61 0 17 -4 34 -10 37
-5 3 -10 19 -10 35 0 16 -4 32 -10 35 -5 3 -10 15 -10 25 0 10 -8 33 -17 52
-25 50 -28 59 -44 112 -8 27 -20 51 -26 53 -7 3 -13 16 -13 29 0 13 -4 24 -10
24 -5 0 -10 9 -10 20 0 11 -4 20 -10 20 -5 0 -10 9 -10 20 0 11 -7 23 -15 26
-8 4 -15 15 -15 25 0 10 -4 19 -8 19 -5 0 -14 16 -22 35 -8 19 -16 35 -20 35
-3 0 -14 16 -24 35 -11 19 -23 35 -28 35 -4 0 -8 6 -8 13 0 11 -128 180 -149
197 -3 3 -30 33 -60 68 -30 35 -95 98 -145 140 -50 42 -96 81 -102 87 -6 5
-27 21 -47 35 -20 14 -37 28 -37 33 0 4 -7 7 -15 7 -8 0 -15 5 -15 10 0 6 -5
10 -11 10 -6 0 -25 11 -42 24 -18 13 -54 36 -82 52 -27 15 -52 30 -55 33 -5 6
-23 15 -92 45 -20 9 -40 21 -43 26 -3 6 -15 10 -26 10 -10 0 -19 5 -19 10 0 6
-7 10 -15 10 -8 0 -23 4 -33 9 -9 5 -37 17 -62 26 -25 9 -53 21 -62 26 -10 5
-27 9 -37 9 -11 0 -22 4 -25 9 -3 5 -20 11 -38 14 -18 3 -60 13 -93 22 -33 9
-81 19 -107 22 -26 3 -52 11 -59 19 -18 22 -751 21 -769 -1z"/>
<path d="M45655 55771 c-3 -6 -17 -11 -31 -11 -13 0 -59 -17 -102 -37 -57 -28
-96 -56 -149 -110 -40 -40 -73 -79 -73 -88 0 -9 -7 -18 -15 -21 -8 -4 -15 -15
-15 -25 0 -10 -4 -19 -10 -19 -5 0 -10 -7 -10 -15 0 -8 -4 -15 -10 -15 -5 0
-10 -5 -10 -11 0 -6 -11 -25 -25 -43 -14 -18 -25 -38 -25 -44 0 -7 -4 -12 -8
-12 -5 0 -16 -15 -26 -32 -9 -18 -22 -42 -29 -53 -29 -48 -62 -101 -69 -110
-20 -25 -58 -87 -58 -94 0 -4 -9 -16 -20 -26 -11 -10 -20 -26 -20 -37 0 -10
-3 -18 -8 -18 -4 0 -16 -16 -26 -35 -11 -19 -22 -35 -26 -35 -3 0 -12 -16 -20
-35 -8 -19 -17 -35 -21 -35 -4 0 -14 -12 -21 -27 -21 -40 -42 -77 -49 -83 -3
-3 -23 -34 -45 -70 -21 -36 -44 -69 -51 -73 -7 -4 -13 -17 -13 -27 0 -11 -4
-20 -8 -20 -5 0 -15 -12 -23 -27 -16 -33 -54 -93 -69 -110 -5 -7 -10 -15 -10
-19 0 -4 -11 -22 -25 -40 -14 -18 -25 -37 -25 -43 0 -6 -4 -11 -10 -11 -5 0
-10 -4 -10 -9 0 -8 -58 -102 -80 -128 -6 -7 -10 -16 -10 -21 0 -5 -11 -22 -25
-38 -14 -16 -25 -33 -25 -38 0 -5 -16 -31 -35 -57 -19 -27 -35 -51 -35 -54 0
-9 -54 -90 -62 -93 -5 -2 -8 -8 -8 -13 0 -12 -71 -123 -82 -127 -4 -2 -8 -8
-8 -13 0 -5 -20 -40 -45 -79 -25 -39 -45 -75 -45 -80 0 -6 -3 -10 -8 -10 -4 0
-16 -16 -26 -35 -11 -19 -23 -35 -28 -35 -4 0 -8 -7 -8 -16 0 -9 -11 -29 -25
-46 -14 -16 -25 -36 -25 -44 0 -8 -4 -14 -10 -14 -5 0 -10 -5 -10 -12 0 -6
-11 -26 -25 -44 -14 -18 -25 -37 -25 -43 0 -6 -4 -11 -8 -11 -5 0 -15 -12 -23
-27 -7 -16 -24 -42 -36 -59 -13 -17 -23 -36 -23 -42 0 -7 -4 -12 -10 -12 -5 0
-10 -5 -10 -12 0 -6 -11 -26 -25 -44 -14 -18 -25 -36 -25 -40 0 -3 -20 -35
-45 -70 -25 -34 -45 -67 -45 -73 0 -6 -4 -11 -10 -11 -5 0 -10 -6 -10 -14 0
-8 -11 -28 -25 -44 -14 -17 -25 -37 -25 -45 0 -8 -3 -17 -7 -19 -11 -4 -83
-116 -83 -128 0 -5 -4 -10 -9 -10 -5 0 -16 -12 -23 -27 -16 -32 -40 -72 -51
-87 -26 -36 -57 -88 -57 -95 0 -5 -11 -19 -25 -32 -13 -13 -25 -32 -25 -41 0
-10 -4 -18 -8 -18 -5 0 -15 -12 -23 -27 -7 -16 -28 -49 -46 -75 -18 -26 -33
-51 -33 -54 0 -4 -11 -22 -25 -40 -14 -18 -25 -37 -25 -43 0 -6 -4 -11 -10
-11 -5 0 -10 -5 -10 -10 0 -10 -56 -98 -80 -127 -5 -7 -10 -15 -10 -19 0 -3
-10 -20 -22 -37 -30 -42 -57 -88 -64 -109 -4 -10 -10 -18 -14 -18 -5 0 -16
-13 -24 -30 -9 -16 -23 -43 -32 -60 -8 -16 -20 -30 -25 -30 -5 0 -9 -4 -9 -9
0 -10 -67 -122 -78 -130 -4 -3 -14 -19 -22 -36 -8 -16 -17 -32 -20 -35 -13
-13 -60 -91 -60 -100 0 -5 -4 -10 -9 -10 -5 0 -14 -14 -20 -30 -5 -17 -17 -33
-26 -36 -8 -3 -15 -14 -15 -23 0 -10 -8 -26 -18 -37 -28 -30 -52 -72 -52 -89
0 -8 -4 -15 -10 -15 -5 0 -10 -11 -10 -24 0 -13 -7 -29 -15 -36 -12 -10 -15
-40 -15 -151 0 -109 3 -141 15 -153 8 -8 15 -21 15 -29 0 -20 41 -97 70 -131
41 -49 104 -106 117 -106 6 0 13 -4 15 -8 4 -10 115 -62 133 -62 7 0 17 -4 20
-10 4 -6 55 -10 120 -10 65 0 116 4 120 10 3 6 13 10 22 10 20 0 129 47 149
65 7 6 24 19 40 30 15 11 35 28 43 38 9 10 26 30 38 43 12 13 35 46 50 72 15
26 37 61 50 78 13 17 23 36 23 42 0 7 5 12 10 12 6 0 10 5 10 11 0 6 11 25 25
43 14 18 25 38 25 44 0 7 5 12 10 12 6 0 10 6 10 14 0 8 11 28 25 44 14 17 25
33 25 37 0 4 16 30 35 56 19 27 35 52 35 56 0 3 11 21 25 39 14 18 25 37 25
43 0 6 5 11 10 11 6 0 10 5 10 10 0 12 72 124 83 128 4 2 7 10 7 18 0 8 11 27
25 42 14 15 25 30 25 34 0 11 92 152 102 156 4 2 8 10 8 19 0 8 11 29 25 47
14 18 25 36 25 40 0 4 5 12 11 19 14 16 99 148 99 154 0 2 11 19 25 37 14 18
25 38 25 44 0 7 4 12 8 12 5 0 16 15 25 33 24 45 58 101 66 107 8 7 29 40 40
65 5 11 28 46 50 78 23 32 41 60 41 62 0 3 20 36 45 75 25 39 45 75 45 80 0 6
3 10 8 10 4 0 16 16 26 35 11 19 23 35 28 35 4 0 8 9 8 19 0 11 4 21 8 23 5 2
26 32 48 68 21 36 43 68 47 71 5 3 14 17 21 30 22 42 110 183 133 214 19 24
63 95 63 100 0 4 11 21 25 39 14 18 25 38 25 44 0 7 5 12 10 12 6 0 10 5 10
12 0 6 11 26 25 44 14 18 25 37 25 43 0 6 5 11 10 11 6 0 10 5 10 12 0 6 10
25 23 42 12 17 29 43 36 59 8 15 18 27 23 27 4 0 8 6 8 13 0 6 18 39 41 72 22
33 44 70 49 83 5 12 14 22 20 22 5 0 10 7 10 15 0 8 10 26 23 41 12 14 22 29
22 32 1 10 80 133 99 155 9 9 16 22 16 28 0 6 20 39 45 73 25 35 45 69 45 75
0 6 4 11 8 11 5 0 16 15 25 33 20 38 34 61 64 104 13 17 23 34 23 38 0 3 5 11
10 18 15 17 53 77 69 110 8 15 18 27 23 27 4 0 8 9 8 20 0 11 5 20 10 20 6 0
14 10 19 23 5 12 28 48 50 80 23 32 41 60 41 63 0 2 25 43 55 89 30 47 55 90
55 94 0 5 11 19 25 32 13 13 25 32 25 42 0 9 5 17 10 17 6 0 10 4 10 9 0 8 52
92 78 126 24 32 62 96 62 104 0 5 4 11 8 13 14 5 62 110 62 134 0 13 5 26 10
29 23 14 7 241 -21 297 -5 10 -9 24 -9 32 0 8 -7 16 -15 20 -8 3 -15 12 -15
20 0 9 -33 49 -72 89 -75 75 -178 136 -258 152 -66 13 -198 17 -205 6z"/>
<path d="M26745 50670 c-66 -3 -130 -11 -142 -18 -12 -7 -40 -12 -62 -12 -22
0 -43 -4 -46 -10 -3 -5 -21 -10 -40 -10 -19 0 -37 -4 -40 -10 -3 -5 -15 -10
-25 -10 -11 0 -36 -7 -57 -16 -21 -9 -48 -21 -60 -25 -47 -18 -78 -32 -93 -40
-8 -4 -40 -21 -70 -36 -30 -15 -76 -42 -101 -60 -26 -18 -50 -33 -54 -33 -4 0
-22 -12 -39 -27 -18 -16 -50 -41 -72 -57 -78 -60 -278 -272 -295 -315 -4 -9
-16 -25 -28 -35 -11 -11 -21 -27 -21 -38 0 -10 -4 -18 -9 -18 -5 0 -16 -15
-25 -32 -9 -18 -25 -46 -36 -63 -10 -16 -19 -38 -19 -47 -1 -10 -5 -18 -11
-18 -5 0 -10 -6 -10 -14 0 -8 -8 -29 -17 -48 -31 -61 -33 -68 -33 -87 0 -11
-4 -23 -10 -26 -5 -3 -10 -18 -10 -33 0 -15 -7 -36 -15 -46 -8 -11 -15 -34
-15 -52 0 -17 -7 -37 -15 -44 -22 -18 -22 -665 0 -694 8 -11 15 -31 15 -45 0
-14 7 -39 15 -55 8 -15 15 -39 15 -52 0 -13 5 -24 10 -24 6 0 10 -16 10 -35 0
-19 5 -35 10 -35 6 0 10 -8 10 -19 0 -10 7 -24 15 -31 8 -7 15 -18 15 -24 0
-40 149 -287 223 -368 17 -20 39 -44 48 -55 89 -105 307 -280 419 -337 30 -15
71 -36 90 -46 64 -33 150 -70 165 -70 7 0 17 -4 20 -10 3 -5 19 -10 35 -10 16
0 31 -4 34 -9 3 -5 23 -11 43 -14 21 -3 72 -14 113 -23 60 -14 121 -18 300
-18 179 0 240 4 300 18 41 9 92 20 113 23 20 3 40 9 43 14 3 5 16 9 30 9 13 0
32 4 42 9 20 9 76 34 112 48 14 6 43 20 65 31 22 11 65 33 95 48 30 16 61 34
68 41 7 7 17 13 21 13 4 0 16 8 27 18 11 9 27 22 36 27 87 56 234 194 316 297
66 83 122 165 122 177 0 5 3 11 8 13 15 6 112 196 112 219 0 5 5 9 10 9 6 0
10 8 10 17 0 19 18 79 31 105 5 10 9 28 9 41 0 12 6 31 14 42 15 23 24 74 32
193 3 45 10 82 15 82 12 0 12 243 0 255 -5 6 -12 46 -15 90 -7 111 -16 167
-32 190 -8 11 -14 34 -14 52 0 17 -4 35 -10 38 -5 3 -10 19 -10 36 0 16 -4 29
-10 29 -5 0 -10 11 -10 25 0 14 -4 25 -10 25 -5 0 -10 5 -10 11 0 10 -10 35
-43 109 -7 14 -21 39 -33 55 -11 17 -28 47 -37 67 -10 20 -21 38 -25 40 -4 2
-17 17 -27 34 -66 105 -301 354 -335 354 -5 0 -10 3 -10 8 0 4 -37 32 -82 62
-46 30 -85 57 -88 60 -10 11 -196 100 -208 100 -12 0 -22 4 -79 34 -17 9 -40
16 -51 16 -12 0 -24 5 -27 10 -3 6 -21 10 -40 10 -19 0 -37 5 -40 10 -3 6 -22
10 -41 10 -19 0 -56 7 -82 14 -54 17 -223 23 -397 16z"/>
<path d="M37305 50401 c-6 -5 -86 -12 -180 -15 -236 -8 -397 -21 -422 -35 -12
-6 -59 -11 -105 -11 -46 0 -88 -4 -93 -9 -6 -5 -41 -12 -80 -15 -121 -9 -221
-22 -236 -31 -14 -10 -86 -21 -189 -31 -30 -3 -59 -10 -65 -15 -5 -5 -30 -9
-56 -9 -26 0 -50 -4 -54 -9 -3 -6 -27 -13 -53 -16 -26 -3 -55 -10 -64 -16 -10
-5 -36 -9 -57 -9 -22 0 -43 -4 -46 -10 -3 -5 -20 -10 -37 -10 -18 0 -45 -4
-62 -9 -17 -5 -58 -17 -91 -26 -33 -9 -74 -21 -91 -26 -17 -5 -42 -9 -57 -9
-14 0 -29 -4 -32 -10 -3 -5 -19 -10 -34 -10 -15 0 -36 -7 -47 -15 -10 -8 -33
-15 -51 -15 -17 0 -35 -4 -38 -10 -3 -5 -19 -10 -35 -10 -16 0 -31 -4 -34 -9
-3 -5 -20 -11 -38 -14 -33 -5 -88 -22 -120 -38 -10 -5 -29 -9 -42 -9 -14 0
-28 -4 -31 -10 -3 -5 -17 -10 -30 -10 -13 0 -27 -4 -30 -10 -3 -5 -13 -10 -22
-10 -8 0 -29 -6 -46 -13 -48 -21 -101 -37 -120 -37 -9 0 -17 -4 -17 -10 0 -5
-10 -10 -23 -10 -12 0 -31 -6 -42 -13 -11 -7 -40 -19 -65 -27 -25 -7 -49 -17
-54 -22 -6 -4 -20 -8 -32 -8 -12 0 -27 -7 -34 -15 -7 -8 -21 -15 -31 -15 -11
0 -27 -4 -37 -9 -9 -5 -28 -13 -42 -19 -14 -5 -43 -17 -65 -27 -69 -29 -84
-35 -107 -44 -28 -10 -136 -59 -160 -72 -10 -5 -25 -9 -33 -9 -8 0 -15 -4 -15
-10 0 -5 -6 -10 -12 -10 -13 0 -38 -11 -208 -94 -52 -25 -100 -46 -107 -46 -6
0 -13 -3 -15 -7 -1 -5 -41 -28 -88 -51 -47 -24 -116 -61 -155 -82 -38 -21 -95
-51 -125 -66 -30 -15 -62 -33 -70 -40 -8 -7 -46 -29 -85 -49 -38 -21 -82 -46
-97 -56 -14 -11 -31 -19 -37 -19 -6 0 -11 -4 -11 -10 0 -5 -5 -10 -12 -10 -6
0 -26 -11 -44 -25 -18 -14 -36 -25 -40 -25 -4 0 -22 -11 -40 -25 -18 -14 -37
-25 -43 -25 -6 0 -11 -4 -11 -10 0 -5 -5 -10 -11 -10 -7 0 -34 -16 -60 -35
-27 -19 -52 -35 -55 -35 -4 0 -35 -20 -70 -45 -34 -25 -67 -45 -72 -45 -6 0
-12 -4 -14 -9 -3 -7 -42 -35 -107 -76 -8 -5 -20 -15 -26 -21 -5 -6 -48 -37
-95 -69 -47 -32 -91 -65 -98 -72 -8 -7 -35 -27 -60 -45 -26 -18 -52 -37 -59
-43 -7 -5 -18 -14 -25 -20 -8 -5 -43 -32 -78 -60 -36 -27 -67 -52 -70 -55 -3
-3 -36 -30 -75 -61 -38 -31 -88 -73 -110 -93 -22 -20 -52 -44 -67 -53 -16 -10
-28 -20 -28 -24 0 -4 -24 -26 -52 -49 -169 -134 -809 -771 -937 -933 -17 -22
-51 -62 -76 -90 -25 -29 -49 -56 -53 -62 -9 -12 -115 -139 -146 -175 -12 -14
-35 -43 -51 -65 -17 -22 -33 -42 -36 -45 -3 -3 -23 -30 -44 -60 -21 -30 -41
-57 -44 -60 -3 -3 -19 -23 -36 -45 -16 -22 -33 -44 -37 -50 -65 -85 -198 -275
-198 -283 0 -4 -9 -14 -20 -22 -11 -8 -20 -20 -20 -26 0 -7 -10 -25 -23 -41
-12 -15 -29 -40 -36 -55 -8 -16 -18 -28 -23 -28 -4 0 -8 -5 -8 -11 0 -6 -11
-25 -25 -43 -14 -18 -25 -36 -25 -40 0 -3 -16 -29 -35 -56 -19 -27 -35 -53
-35 -56 0 -4 -11 -22 -25 -40 -14 -18 -25 -37 -25 -43 0 -6 -4 -11 -10 -11 -5
0 -10 -9 -10 -20 0 -11 -4 -20 -8 -20 -5 0 -14 -16 -22 -35 -8 -19 -17 -35
-21 -35 -4 0 -19 -24 -34 -52 -15 -29 -32 -60 -39 -68 -20 -27 -36 -60 -36
-75 0 -8 -4 -15 -8 -15 -4 0 -15 -15 -23 -32 -33 -70 -65 -123 -76 -131 -7 -4
-13 -14 -13 -21 0 -16 -49 -114 -61 -122 -5 -3 -9 -14 -9 -25 0 -10 -4 -19
-10 -19 -5 0 -10 -9 -10 -20 0 -11 -4 -20 -10 -20 -5 0 -10 -11 -10 -25 0 -14
-4 -25 -10 -25 -5 0 -10 -9 -10 -20 0 -11 -7 -23 -15 -26 -8 -4 -15 -12 -15
-20 0 -8 -4 -22 -9 -32 -4 -9 -20 -41 -35 -69 -14 -29 -26 -60 -26 -68 0 -8
-4 -15 -10 -15 -5 0 -10 -11 -10 -25 0 -14 -4 -25 -10 -25 -5 0 -10 -8 -10
-19 0 -10 -6 -24 -13 -30 -8 -6 -20 -30 -27 -53 -7 -24 -17 -47 -22 -53 -4 -5
-8 -19 -8 -32 0 -13 -4 -23 -9 -23 -5 0 -12 -13 -16 -30 -4 -16 -11 -32 -16
-35 -5 -4 -9 -15 -9 -26 0 -10 -4 -19 -10 -19 -5 0 -10 -9 -10 -20 0 -11 -11
-43 -25 -72 -14 -28 -25 -60 -25 -69 0 -10 -4 -21 -10 -24 -5 -3 -10 -15 -10
-26 0 -10 -4 -19 -10 -19 -5 0 -10 -10 -10 -23 0 -13 -7 -32 -15 -43 -8 -10
-15 -31 -15 -46 0 -16 -4 -28 -9 -28 -5 0 -11 -13 -15 -30 -3 -16 -9 -43 -12
-60 -3 -16 -12 -35 -20 -41 -8 -6 -14 -22 -14 -35 0 -14 -4 -32 -9 -42 -5 -9
-16 -39 -24 -67 -22 -70 -38 -117 -48 -137 -5 -10 -9 -29 -9 -42 0 -14 -4 -27
-9 -30 -5 -3 -11 -20 -14 -38 -4 -30 -14 -63 -38 -123 -8 -20 -16 -59 -26
-128 -3 -20 -9 -40 -14 -43 -5 -3 -9 -23 -9 -44 0 -21 -5 -40 -11 -42 -6 -2
-16 -26 -21 -53 -5 -28 -13 -72 -19 -100 -6 -27 -13 -70 -16 -95 -3 -25 -10
-48 -16 -51 -5 -4 -12 -30 -15 -58 -2 -28 -9 -54 -13 -57 -5 -3 -9 -29 -9 -59
0 -30 -4 -57 -10 -60 -5 -3 -10 -28 -10 -54 0 -26 -4 -51 -9 -56 -13 -14 -45
-221 -57 -370 -4 -44 -10 -85 -15 -90 -4 -6 -10 -47 -12 -92 -3 -45 -8 -87
-13 -94 -4 -7 -11 -64 -16 -128 -4 -64 -11 -144 -14 -178 l-6 -63 381 0 381 0
0 23 c0 13 7 32 15 43 8 10 15 27 15 37 0 9 5 17 10 17 6 0 10 7 10 15 0 8 4
23 9 33 31 61 61 129 61 140 0 6 5 12 10 12 6 0 10 7 10 16 0 9 8 28 18 42 10
15 22 34 25 42 4 8 16 29 26 45 11 17 20 37 20 46 1 9 8 19 16 23 8 3 15 15
15 26 0 11 3 20 8 20 4 0 14 15 22 33 7 17 17 37 22 42 4 6 19 24 33 41 14 18
25 39 25 48 0 9 4 16 8 16 5 0 17 16 28 35 10 19 22 35 26 35 5 0 8 6 8 13 0
7 15 31 33 53 18 21 44 55 57 74 13 19 27 37 30 40 4 3 22 26 41 51 107 145
424 480 548 579 24 19 58 46 75 60 17 14 47 37 66 52 19 14 45 35 57 47 12 12
27 21 33 21 5 0 10 5 10 10 0 6 4 10 9 10 6 0 22 11 37 25 15 14 33 25 40 25
7 0 14 3 16 8 5 12 76 62 87 62 6 0 11 5 11 10 0 6 5 10 12 10 6 0 26 11 44
25 18 14 37 25 43 25 6 0 11 3 11 8 0 4 19 16 41 27 67 32 79 39 79 47 0 5 7
8 15 8 14 0 54 18 65 30 14 15 61 40 75 40 8 0 15 5 15 10 0 6 6 10 14 10 11
0 91 36 178 81 10 5 25 9 33 9 8 0 15 4 15 9 0 5 10 12 23 16 24 7 61 22 89
36 10 5 24 9 32 9 8 0 29 8 48 17 62 31 68 33 92 33 14 0 28 5 31 10 3 6 17
10 31 10 13 0 32 4 42 9 32 16 87 33 120 38 18 3 35 9 38 14 3 5 20 9 39 9 19
0 37 5 40 10 3 6 21 10 38 10 18 1 43 7 57 15 14 8 46 14 72 15 26 0 50 5 53
10 3 6 28 10 55 10 27 0 52 5 55 10 3 6 30 10 58 10 29 0 68 5 87 12 61 20
245 30 565 30 320 0 504 -10 565 -30 19 -7 58 -12 85 -12 28 0 55 -4 60 -9 6
-5 33 -12 60 -15 106 -11 141 -18 172 -32 17 -8 45 -14 61 -14 17 0 34 -4 37
-10 3 -5 21 -10 40 -10 19 0 36 -4 39 -9 5 -8 17 -11 107 -27 35 -6 37 -4 44
26 4 17 4 34 1 37 -3 3 0 15 6 27 12 20 24 82 35 179 2 26 9 47 14 47 5 0 9
15 9 34 0 18 7 47 15 62 8 16 15 41 15 57 0 15 5 27 10 27 6 0 10 16 10 35 0
19 5 35 10 35 6 0 10 16 10 35 0 19 4 35 10 35 5 0 12 16 16 35 3 19 10 38 15
41 5 3 9 18 9 35 0 16 5 29 10 29 6 0 10 13 10 29 0 17 5 33 10 36 6 3 10 14
10 25 0 10 7 20 15 24 9 3 15 18 15 36 0 16 5 30 10 30 6 0 10 11 10 25 0 14
5 25 10 25 6 0 10 11 10 24 0 13 7 26 15 30 8 3 15 12 15 21 0 8 4 23 9 33 5
9 21 44 37 77 15 33 36 72 46 87 10 14 18 31 18 38 0 7 10 26 23 43 12 17 29
45 37 62 19 39 103 179 110 185 4 3 15 20 25 38 11 17 23 32 27 32 4 0 8 5 8
11 0 9 84 135 100 149 3 3 14 18 23 33 10 16 27 38 37 50 10 12 34 40 52 63
136 169 331 375 457 484 36 30 69 60 75 65 20 18 82 70 121 100 21 17 43 35
49 41 14 13 315 224 321 224 2 0 35 19 72 43 37 23 82 49 98 57 17 8 44 25 61
37 17 13 36 23 43 23 12 0 52 20 61 31 3 3 23 14 45 24 22 9 74 33 115 52 71
33 92 42 150 66 37 15 92 39 112 48 10 5 27 9 37 9 11 0 23 5 26 10 3 6 17 10
30 10 13 0 26 4 29 9 7 11 98 41 125 41 11 0 23 5 26 10 3 6 19 10 35 10 16 0
32 5 35 10 3 6 18 10 33 10 15 0 40 7 56 15 15 8 40 15 55 15 15 0 31 4 36 9
6 5 30 12 55 15 101 12 156 23 177 34 12 7 49 12 82 12 33 0 63 5 66 10 3 6
48 10 100 10 52 0 97 4 100 10 4 6 143 10 385 10 242 0 381 -4 385 -10 3 -6
48 -10 100 -10 52 0 97 -4 100 -10 3 -5 32 -10 64 -10 33 0 72 -7 87 -15 16
-8 47 -15 69 -15 23 0 45 -4 50 -9 6 -5 30 -11 55 -14 74 -9 113 -18 147 -33
17 -8 42 -14 56 -14 14 0 29 -4 32 -10 3 -5 19 -10 35 -10 16 0 32 -4 35 -10
3 -5 19 -10 35 -10 16 0 32 -4 35 -10 3 -5 16 -10 29 -10 12 0 31 -7 42 -15
10 -8 28 -15 40 -15 11 0 24 -4 30 -8 5 -5 29 -15 54 -22 25 -7 56 -19 70 -26
14 -6 36 -16 50 -21 14 -6 50 -22 80 -37 30 -14 61 -26 68 -26 6 0 12 -4 12
-10 0 -5 11 -10 25 -10 14 0 25 -4 25 -10 0 -5 5 -10 12 -10 18 0 88 -33 88
-42 0 -4 9 -8 20 -8 11 0 20 -4 20 -10 0 -5 7 -10 17 -10 9 0 31 -11 49 -25
18 -14 40 -25 48 -25 9 0 16 -4 16 -10 0 -5 5 -10 11 -10 6 0 42 -20 80 -45
38 -25 72 -45 74 -45 6 0 307 -211 321 -224 6 -6 28 -24 49 -41 38 -29 105
-85 115 -95 3 -3 43 -39 90 -80 95 -84 292 -284 340 -345 17 -22 48 -58 69
-80 21 -22 46 -53 57 -70 10 -16 31 -43 47 -59 15 -16 27 -32 27 -37 0 -4 6
-14 13 -21 24 -25 107 -147 107 -157 0 -6 4 -11 8 -11 4 0 16 -15 27 -32 10
-18 21 -35 25 -38 9 -8 93 -150 113 -192 9 -20 22 -40 27 -43 6 -3 10 -15 10
-25 0 -10 3 -20 8 -22 4 -1 17 -23 30 -47 12 -24 28 -55 36 -70 7 -14 18 -37
24 -51 5 -14 26 -59 45 -100 19 -41 40 -91 47 -110 7 -19 18 -48 25 -65 7 -16
17 -41 23 -55 5 -14 15 -38 21 -53 6 -15 11 -37 11 -47 0 -11 5 -20 10 -20 6
0 10 -11 10 -24 0 -13 6 -37 14 -53 20 -41 36 -96 36 -126 0 -15 5 -27 10 -27
6 0 10 -15 10 -34 0 -19 6 -41 14 -48 7 -8 16 -32 19 -54 3 -21 11 -64 16 -94
6 -30 14 -80 19 -110 4 -30 11 -60 15 -67 4 -7 10 -40 13 -75 3 -35 8 -70 12
-78 14 -34 24 -236 28 -569 l5 -354 89 6 c49 3 98 10 109 16 26 14 595 15 621
1 10 -5 72 -14 137 -20 239 -20 380 -42 509 -81 17 -5 42 -9 57 -9 14 0 28 -4
31 -9 3 -5 23 -11 43 -14 68 -10 124 -24 136 -36 6 -6 21 -11 34 -11 13 0 31
-4 41 -9 25 -13 86 -31 104 -31 9 0 21 -7 28 -15 7 -8 23 -15 36 -15 12 0 26
-4 29 -10 3 -5 15 -10 26 -10 19 0 27 -3 86 -34 17 -9 38 -16 47 -16 9 0 16
-4 16 -10 0 -5 11 -10 25 -10 14 0 25 -4 25 -10 0 -5 6 -10 14 -10 8 0 47 -16
87 -36 41 -20 89 -44 107 -53 17 -8 32 -19 32 -23 0 -5 9 -8 20 -8 11 0 20 -4
20 -10 0 -5 7 -10 16 -10 9 0 30 -10 47 -22 35 -25 70 -46 135 -79 23 -13 42
-26 42 -31 0 -4 5 -8 11 -8 6 0 46 -25 89 -55 43 -30 83 -55 89 -55 5 0 14 -6
18 -13 4 -7 31 -29 60 -49 28 -20 60 -44 70 -52 53 -44 104 -84 139 -111 32
-24 364 -353 488 -482 l31 -33 749 0 749 0 -7 93 c-4 50 -11 96 -17 102 -5 5
-9 54 -9 110 0 56 -4 105 -9 111 -5 5 -12 45 -15 89 -8 127 -22 238 -35 268
-6 16 -11 55 -11 87 0 32 -4 61 -9 64 -5 3 -11 32 -15 63 -11 110 -24 186 -33
192 -5 3 -10 26 -12 51 -1 24 -6 49 -10 55 -5 5 -11 30 -15 55 -15 119 -18
136 -25 155 -17 40 -48 170 -58 238 -3 20 -9 40 -14 43 -5 3 -9 20 -9 38 0 18
-7 41 -15 52 -8 10 -15 33 -15 51 0 17 -4 35 -10 38 -5 3 -10 22 -10 41 0 19
-4 34 -10 34 -5 0 -10 15 -10 34 0 19 -7 41 -15 50 -8 8 -15 28 -15 45 0 17
-4 31 -10 31 -5 0 -10 15 -10 34 0 19 -4 38 -10 41 -5 3 -10 14 -10 24 0 10
-7 32 -15 47 -8 16 -15 37 -15 46 0 9 -4 20 -10 23 -5 3 -10 19 -10 36 0 16
-4 29 -10 29 -5 0 -10 11 -10 24 0 13 -7 37 -15 52 -8 16 -15 37 -15 47 0 9
-4 17 -10 17 -5 0 -10 11 -10 25 0 24 -3 33 -28 82 -7 13 -12 29 -12 37 0 8
-8 29 -17 48 -31 61 -33 68 -33 88 0 11 -4 20 -10 20 -5 0 -10 11 -10 24 0 13
-7 29 -15 36 -8 7 -15 21 -15 31 0 10 -4 21 -10 24 -5 3 -10 15 -10 26 0 10
-4 27 -9 37 -5 9 -17 34 -25 54 -9 20 -21 40 -26 43 -6 3 -10 15 -10 26 0 10
-4 27 -9 37 -39 75 -81 166 -81 173 0 5 -11 27 -25 49 -14 22 -25 49 -25 60 0
11 -4 20 -10 20 -5 0 -10 6 -10 13 0 18 -28 75 -41 82 -5 4 -9 15 -9 26 0 10
-4 19 -10 19 -5 0 -10 9 -10 20 0 11 -4 20 -10 20 -5 0 -10 9 -10 19 0 11 -4
22 -9 25 -4 3 -26 40 -49 83 -80 155 -87 168 -94 171 -5 2 -8 12 -8 23 0 11
-7 22 -15 25 -8 4 -15 13 -15 21 0 8 -8 27 -17 41 -31 47 -43 67 -50 82 -4 8
-9 17 -12 20 -7 6 -29 44 -50 85 -8 17 -17 32 -20 35 -7 6 -28 42 -49 83 -7
15 -17 27 -21 27 -4 0 -13 16 -21 35 -8 19 -17 35 -22 35 -4 0 -8 6 -8 13 0 7
-11 24 -25 39 -14 15 -25 30 -25 33 0 12 -124 195 -132 195 -4 0 -8 5 -8 10 0
11 -132 203 -156 227 -8 8 -14 18 -14 22 0 4 -8 16 -18 27 -10 10 -31 38 -47
60 -44 61 -118 158 -124 164 -4 3 -19 23 -36 45 -16 22 -32 42 -35 45 -3 3
-24 27 -45 55 -22 27 -45 56 -52 63 -7 7 -29 34 -50 60 -33 40 -53 64 -118
136 -5 6 -35 40 -65 75 -30 36 -84 95 -120 131 -36 37 -72 76 -81 86 -35 42
-529 522 -584 569 -33 27 -62 52 -65 55 -12 13 -100 89 -145 125 -27 22 -56
47 -65 55 -8 8 -31 26 -50 40 -19 14 -44 34 -55 45 -11 11 -38 34 -60 50 -42
31 -69 53 -89 70 -23 21 -243 183 -298 220 -32 21 -58 42 -58 46 0 5 -5 9 -11
9 -6 0 -68 41 -139 90 -71 50 -131 90 -135 90 -3 0 -21 11 -39 25 -18 14 -38
25 -44 25 -7 0 -12 5 -12 10 0 6 -7 10 -15 10 -8 0 -15 3 -15 8 0 7 -30 25
-62 38 -10 3 -18 10 -18 15 0 5 -5 9 -12 9 -6 0 -25 10 -42 23 -17 13 -38 26
-46 30 -8 4 -33 18 -55 32 -22 14 -47 28 -55 32 -8 3 -17 9 -20 12 -3 3 -25
16 -49 29 -64 33 -105 56 -111 63 -3 3 -22 13 -42 22 -20 10 -40 22 -43 27 -3
6 -15 10 -25 10 -10 0 -20 3 -22 8 -1 4 -30 20 -63 37 -33 16 -62 32 -65 35
-3 3 -18 11 -35 19 -16 7 -42 20 -56 27 -62 32 -108 55 -179 87 -100 46 -142
66 -160 76 -8 5 -27 14 -42 20 -16 6 -40 16 -55 22 -16 6 -35 15 -43 20 -8 5
-22 12 -30 15 -8 3 -24 9 -35 14 -51 19 -74 29 -125 54 -30 14 -63 26 -73 26
-9 0 -17 5 -17 10 0 6 -9 10 -20 10 -11 0 -28 4 -38 9 -9 4 -35 16 -57 26 -22
9 -48 21 -57 26 -10 5 -25 9 -33 9 -15 0 -23 3 -83 33 -19 9 -42 17 -52 17
-10 0 -22 5 -25 10 -3 6 -19 10 -36 10 -16 0 -29 5 -29 10 0 6 -9 10 -20 10
-17 0 -66 18 -112 41 -10 5 -29 9 -42 9 -14 0 -28 5 -31 10 -3 6 -19 10 -35
10 -16 0 -32 5 -35 10 -3 6 -16 10 -29 10 -12 0 -31 7 -42 15 -10 8 -31 15
-46 15 -15 0 -30 5 -33 10 -3 6 -21 10 -40 10 -19 0 -37 5 -40 10 -3 6 -18 10
-33 10 -15 0 -36 7 -46 15 -11 8 -34 15 -52 15 -18 0 -36 5 -39 10 -3 6 -21
10 -40 10 -19 0 -37 5 -40 10 -3 6 -18 10 -32 10 -14 0 -48 7 -77 16 -95 30
-112 34 -144 34 -17 0 -34 5 -37 10 -3 6 -25 10 -49 10 -23 0 -46 3 -50 8 -9
8 -111 31 -176 39 -25 3 -49 9 -54 14 -6 5 -34 9 -62 9 -29 0 -56 5 -59 10 -3
6 -31 10 -61 10 -31 0 -65 6 -77 12 -22 12 -101 23 -242 34 -38 3 -74 10 -79
15 -6 5 -45 9 -89 9 -43 0 -88 5 -100 11 -11 7 -73 14 -136 17 -64 2 -120 8
-126 12 -5 4 -86 8 -180 9 -93 1 -174 7 -180 12 -12 12 -868 12 -880 0z"/>
<path d="M49025 49828 c-22 -5 -65 -12 -95 -15 -30 -3 -59 -9 -64 -14 -6 -5
-25 -9 -42 -9 -18 0 -36 -4 -39 -10 -3 -5 -15 -10 -25 -10 -10 0 -31 -6 -47
-14 -15 -8 -62 -31 -103 -52 -41 -20 -85 -42 -97 -48 -13 -6 -23 -14 -23 -18
0 -5 -5 -8 -11 -8 -17 0 -141 -102 -187 -154 -9 -10 -30 -30 -46 -45 -35 -32
-146 -190 -146 -208 0 -7 -4 -13 -10 -13 -5 0 -10 -9 -10 -20 0 -11 -4 -20
-10 -20 -5 0 -10 -8 -10 -19 0 -10 -6 -24 -14 -31 -8 -6 -12 -18 -9 -26 3 -7
-2 -17 -11 -20 -9 -4 -16 -18 -16 -34 0 -16 -4 -32 -10 -35 -5 -3 -10 -17 -10
-31 0 -14 -5 -34 -11 -45 -6 -11 -12 -42 -15 -67 -2 -26 -8 -63 -14 -82 -17
-59 -12 -226 11 -335 12 -55 23 -117 26 -137 3 -21 9 -38 14 -38 5 0 9 -13 9
-29 0 -16 7 -34 15 -41 9 -7 14 -19 11 -27 -3 -8 1 -16 9 -19 8 -4 15 -17 15
-30 0 -13 4 -24 8 -24 4 0 16 -20 26 -45 11 -25 22 -45 26 -45 4 0 13 -12 21
-27 7 -16 28 -44 46 -63 18 -19 33 -38 33 -42 0 -23 219 -219 270 -241 8 -4
33 -18 55 -31 40 -25 92 -51 130 -66 11 -4 37 -15 58 -24 21 -9 46 -16 57 -16
10 0 22 -4 25 -10 3 -5 23 -10 44 -10 20 0 41 -4 46 -9 28 -27 442 -27 470 0
5 5 26 9 46 9 21 0 41 5 44 10 3 6 15 10 27 10 11 0 32 6 46 14 15 7 38 18 52
23 70 28 178 87 251 139 108 76 319 311 319 355 0 5 4 9 8 9 4 0 16 20 26 45
11 25 23 45 28 45 4 0 8 8 8 18 0 10 3 22 7 26 10 9 33 78 33 99 0 9 9 26 20
37 19 19 20 33 20 335 0 263 -2 315 -14 315 -17 0 -26 22 -26 61 0 16 -4 29
-10 29 -5 0 -10 11 -10 25 0 14 -4 25 -10 25 -5 0 -10 6 -10 13 0 7 -9 28 -20
47 -11 19 -29 54 -40 78 -11 23 -25 42 -30 42 -6 0 -10 6 -10 13 0 16 -149
197 -181 219 -13 9 -40 31 -59 49 -42 38 -145 109 -158 109 -5 0 -15 7 -22 15
-7 8 -21 15 -31 15 -11 0 -19 5 -19 10 0 6 -7 10 -15 10 -15 0 -23 3 -83 33
-19 9 -42 17 -52 17 -10 0 -22 5 -25 10 -3 6 -21 10 -40 10 -19 0 -37 5 -40
10 -3 6 -24 10 -45 10 -22 0 -65 7 -97 15 -63 17 -176 18 -238 3z"/>
<path d="M37725 46461 c-6 -5 -46 -12 -90 -14 -103 -7 -196 -21 -223 -36 -11
-6 -39 -11 -61 -11 -22 0 -42 -4 -45 -9 -3 -5 -23 -11 -43 -14 -75 -11 -108
-20 -128 -33 -11 -8 -32 -14 -47 -14 -15 0 -30 -4 -33 -10 -3 -5 -19 -10 -35
-10 -16 0 -32 -4 -35 -10 -3 -5 -17 -10 -30 -10 -13 0 -26 -4 -29 -9 -3 -4
-27 -16 -53 -25 -89 -32 -126 -48 -191 -80 -30 -14 -60 -26 -68 -26 -8 0 -14
-4 -14 -10 0 -5 -9 -10 -19 -10 -11 0 -22 -4 -26 -9 -3 -6 -31 -22 -63 -37
-31 -15 -70 -37 -87 -49 -16 -12 -43 -28 -60 -36 -16 -7 -34 -17 -40 -22 -5
-4 -66 -46 -135 -93 -69 -47 -126 -90 -128 -95 -2 -5 -10 -9 -17 -9 -7 0 -15
-3 -17 -7 -1 -5 -25 -26 -53 -48 -137 -109 -391 -365 -487 -490 -24 -31 -58
-76 -76 -98 -18 -23 -53 -73 -79 -112 -26 -38 -50 -72 -53 -75 -4 -3 -15 -18
-24 -35 -9 -16 -25 -43 -35 -60 -46 -75 -62 -104 -91 -160 -17 -33 -34 -67
-39 -75 -8 -14 -26 -52 -65 -142 -9 -20 -16 -41 -16 -47 0 -6 -4 -11 -10 -11
-5 0 -10 -11 -10 -25 0 -14 -4 -25 -10 -25 -5 0 -10 -13 -10 -29 0 -16 -7 -34
-15 -41 -8 -7 -13 -15 -10 -19 2 -4 -3 -20 -11 -35 -7 -16 -14 -39 -14 -52 0
-13 -4 -24 -10 -24 -5 0 -10 -13 -10 -28 0 -15 -4 -32 -10 -38 -5 -5 -11 -23
-12 -39 -1 -17 -6 -36 -11 -43 -14 -19 -45 -164 -54 -252 -3 -30 -10 -61 -16
-68 -24 -30 -37 -315 -50 -1097 l-2 -140 -70 34 c-38 18 -82 39 -96 47 -40 21
-100 50 -139 68 -19 9 -42 20 -50 25 -23 14 -352 172 -375 181 -11 4 -45 19
-75 34 -30 14 -63 26 -73 26 -9 0 -17 5 -17 10 0 6 -11 10 -25 10 -14 0 -33 4
-43 9 -70 34 -149 61 -180 61 -11 0 -24 5 -27 10 -3 6 -18 10 -33 10 -15 1
-38 7 -52 15 -14 8 -41 14 -60 15 -20 0 -40 4 -45 9 -6 5 -30 12 -55 15 -42 5
-78 10 -240 35 -285 43 -567 43 -850 0 -143 -22 -197 -30 -240 -35 -25 -3 -49
-10 -54 -15 -6 -5 -26 -9 -45 -9 -20 -1 -47 -7 -61 -15 -14 -8 -37 -14 -52
-15 -15 0 -30 -4 -33 -10 -3 -5 -21 -10 -40 -10 -19 0 -37 -4 -40 -10 -3 -5
-19 -10 -35 -10 -16 0 -31 -4 -34 -9 -4 -5 -32 -17 -64 -27 -31 -9 -61 -21
-66 -26 -6 -4 -17 -8 -25 -8 -9 0 -41 -12 -71 -26 -30 -15 -64 -30 -75 -34
-47 -18 -305 -149 -315 -161 -3 -3 -12 -9 -20 -13 -34 -16 -222 -136 -230
-146 -3 -4 -10 -9 -16 -11 -13 -5 -85 -61 -214 -167 -100 -83 -382 -373 -446
-458 -16 -21 -32 -41 -35 -44 -14 -11 -149 -210 -149 -220 0 -5 -3 -10 -8 -10
-4 0 -16 -16 -26 -35 -11 -19 -23 -35 -28 -35 -4 0 -8 -6 -8 -12 0 -7 -16 -39
-35 -71 -19 -32 -35 -69 -35 -83 l0 -24 7470 0 7470 0 0 25 c0 14 -5 25 -11
25 -6 0 -38 19 -72 43 -74 50 -97 65 -117 74 -8 4 -17 9 -20 12 -6 7 -92 53
-175 94 -33 16 -67 33 -75 38 -8 5 -22 12 -30 15 -65 25 -171 70 -202 85 -10
5 -27 9 -37 9 -11 0 -23 5 -26 10 -3 6 -17 10 -30 10 -13 0 -26 4 -29 9 -3 5
-22 12 -41 15 -19 4 -35 11 -35 16 0 6 -15 10 -34 10 -19 0 -38 5 -41 10 -3 6
-21 10 -40 10 -19 0 -37 5 -40 10 -3 6 -23 10 -44 10 -20 0 -46 7 -57 15 -10
8 -40 15 -66 15 -26 0 -50 5 -53 10 -3 6 -32 10 -64 10 -31 0 -61 4 -66 9 -6
5 -53 12 -105 14 -52 3 -117 9 -145 15 -64 14 -415 14 -480 0 -46 -9 -123 -18
-295 -34 -36 -3 -69 -10 -74 -15 -6 -5 -28 -9 -50 -9 -23 -1 -52 -7 -66 -15
-14 -8 -39 -14 -57 -15 -17 0 -34 -4 -37 -9 -3 -5 -23 -11 -43 -14 -52 -7 -94
-17 -118 -27 -56 -23 -113 -40 -132 -40 -12 0 -25 -4 -28 -10 -3 -5 -21 -10
-40 -10 -19 0 -37 -4 -40 -10 -3 -5 -19 -10 -34 -10 -15 0 -36 -7 -47 -15 -10
-8 -31 -15 -46 -15 -15 0 -30 -4 -33 -10 -3 -5 -21 -10 -40 -10 -19 0 -37 -4
-40 -10 -3 -5 -18 -10 -33 -10 -15 0 -36 -7 -46 -15 -11 -8 -32 -15 -47 -15
-15 0 -31 -4 -34 -10 -7 -12 -45 -14 -45 -2 1 4 7 18 15 32 8 14 14 42 15 63
0 20 5 37 10 37 6 0 10 18 10 39 0 22 5 43 10 46 6 3 10 23 10 44 0 20 4 41
10 47 10 10 28 80 37 147 3 20 9 40 14 43 5 3 9 21 9 40 0 19 4 42 9 52 21 41
69 257 78 352 3 30 9 58 15 61 43 27 42 1032 -1 1058 -5 3 -11 33 -14 66 -9
97 -18 149 -28 159 -5 6 -9 26 -9 46 0 20 -4 40 -9 46 -10 9 -29 76 -38 132
-3 18 -9 35 -14 38 -5 3 -9 16 -9 30 0 13 -4 32 -10 42 -11 21 -34 76 -50 122
-17 48 -31 82 -41 100 -5 8 -12 22 -15 30 -3 8 -10 23 -15 32 -5 10 -9 24 -9
32 0 7 -7 19 -15 26 -8 7 -13 16 -10 20 3 5 -2 15 -10 23 -8 9 -15 23 -15 31
0 9 -4 16 -10 16 -5 0 -10 8 -10 17 0 9 -6 24 -14 32 -7 9 -28 45 -47 81 -18
36 -44 79 -56 96 -13 17 -23 36 -23 42 0 6 -4 12 -8 14 -5 2 -29 35 -55 73
-26 39 -61 89 -79 112 -18 22 -52 67 -76 98 -98 127 -347 378 -487 490 -27 22
-51 43 -53 48 -2 4 -10 7 -17 7 -7 0 -15 4 -17 9 -1 5 -59 48 -128 95 -69 47
-129 89 -135 93 -5 5 -23 15 -40 22 -16 8 -43 24 -60 36 -16 12 -56 34 -87 49
-32 15 -60 31 -63 37 -4 5 -15 9 -26 9 -10 0 -19 5 -19 10 0 6 -6 10 -14 10
-8 0 -38 12 -68 26 -50 25 -63 30 -120 53 -47 18 -84 33 -111 47 -16 8 -37 14
-47 14 -10 0 -22 5 -25 10 -3 6 -19 10 -35 10 -16 0 -32 5 -35 10 -3 6 -18 10
-33 10 -15 0 -36 6 -47 14 -11 7 -33 16 -50 19 -16 3 -52 11 -80 17 -27 6 -70
14 -95 18 -25 4 -51 12 -59 16 -14 9 -69 18 -231 38 -115 14 -733 21 -745 9z"/>
<path d="M27465 40448 c-27 -5 -63 -14 -80 -20 -16 -5 -41 -12 -55 -15 -60
-11 -193 -80 -289 -148 -62 -45 -190 -175 -210 -213 -8 -15 -20 -31 -27 -35
-8 -4 -14 -13 -14 -18 0 -6 -9 -23 -19 -38 -11 -15 -23 -39 -26 -54 -4 -15
-11 -27 -16 -27 -5 0 -9 -9 -9 -19 0 -11 -4 -23 -10 -26 -5 -3 -10 -19 -10
-35 0 -16 -4 -32 -10 -35 -5 -3 -10 -26 -10 -50 0 -26 -5 -45 -12 -47 -21 -7
-24 -284 -4 -332 9 -21 16 -53 16 -72 0 -18 5 -36 10 -39 6 -3 10 -17 10 -30
0 -13 5 -27 10 -30 6 -3 10 -17 10 -29 0 -13 7 -29 15 -36 8 -7 15 -21 15 -31
0 -11 5 -19 10 -19 6 0 10 -7 10 -15 0 -14 45 -83 95 -145 26 -32 113 -120
144 -143 41 -32 116 -84 131 -90 8 -4 22 -11 30 -16 8 -5 29 -14 45 -21 17 -7
38 -16 47 -21 10 -5 26 -9 36 -9 10 0 23 -5 29 -11 6 -6 31 -16 55 -22 56 -14
20653 -22 20683 -8 11 5 31 12 45 14 30 6 133 43 175 63 114 55 277 189 350
289 17 22 32 42 35 45 19 19 79 141 80 163 0 9 4 17 9 17 5 0 13 15 16 33 4
17 11 37 15 42 15 20 23 94 27 279 2 124 0 193 -7 200 -5 5 -10 19 -10 30 0
24 -18 82 -36 118 -8 14 -14 33 -14 42 0 9 -4 16 -10 16 -5 0 -10 8 -10 19 0
10 -7 24 -15 31 -8 7 -15 17 -15 22 0 13 -57 95 -92 133 -87 93 -120 125 -128
125 -5 0 -10 4 -12 8 -4 10 -102 82 -112 82 -4 0 -24 11 -44 25 -20 14 -45 25
-54 25 -10 0 -18 5 -18 10 0 6 -11 10 -24 10 -14 0 -28 5 -31 10 -3 6 -19 10
-34 10 -15 0 -32 5 -39 12 -7 7 -38 16 -69 22 -77 12 -20508 17 -20578 4z"/>
<path d="M27881 37661 c-11 -7 -13 -24 -8 -77 4 -37 11 -72 17 -78 5 -5 10
-47 10 -92 0 -46 5 -86 10 -89 6 -3 10 -44 10 -90 0 -46 5 -87 10 -90 6 -3 10
-36 10 -73 0 -37 5 -83 12 -102 6 -19 15 -73 19 -120 5 -47 13 -125 18 -175 6
-49 14 -133 19 -186 5 -53 13 -102 17 -109 4 -6 9 -50 12 -98 2 -48 9 -88 14
-90 5 -2 9 -41 9 -86 0 -45 4 -86 9 -92 5 -5 11 -45 14 -89 9 -136 26 -275 34
-288 4 -6 11 -50 15 -97 4 -47 12 -123 17 -170 5 -47 14 -134 20 -195 6 -60
15 -111 21 -113 6 -2 10 -40 10 -93 0 -49 4 -89 9 -89 5 0 12 -39 15 -87 8
-142 22 -266 33 -293 6 -14 11 -56 12 -94 1 -39 5 -75 9 -80 7 -10 11 -56 28
-263 5 -64 10 -83 21 -83 9 0 44 20 79 45 34 25 65 45 69 45 3 0 11 5 18 10
31 27 188 130 197 130 5 0 10 5 10 10 0 6 5 10 11 10 6 0 25 11 43 25 18 14
38 25 44 25 7 0 12 5 12 10 0 6 5 10 11 10 6 0 25 10 42 23 31 22 54 35 110
64 15 8 27 18 27 21 0 4 15 14 33 21 17 8 55 30 84 48 29 18 55 33 59 33 4 0
21 10 38 23 17 13 46 30 64 38 17 8 32 17 32 21 0 5 9 8 20 8 11 0 20 4 20 9
0 5 8 11 18 14 9 4 49 24 87 46 85 48 248 134 295 155 14 6 27 13 30 16 3 3
41 22 85 44 44 21 87 42 95 47 19 11 77 38 110 51 14 6 32 14 40 19 8 5 31 16
50 25 19 8 43 20 52 25 10 5 25 9 33 9 8 0 15 4 15 9 0 4 21 16 48 26 26 10
51 22 57 26 5 5 19 9 32 9 13 0 23 5 23 10 0 6 8 10 19 10 10 0 24 7 31 15 7
8 21 15 31 15 10 0 21 5 24 10 3 6 15 10 26 10 10 0 27 4 37 9 69 36 126 61
138 61 8 0 22 4 32 9 9 5 35 17 57 26 22 10 48 22 57 26 10 5 25 9 33 9 8 0
23 4 33 9 9 5 28 13 42 18 14 6 42 18 63 27 21 9 46 16 57 16 10 0 22 5 25 10
3 6 17 10 30 10 13 0 27 5 30 10 3 6 16 10 28 10 12 0 31 7 41 15 11 8 30 15
43 15 13 0 23 5 23 10 0 6 15 10 34 10 19 0 38 5 41 10 3 6 15 10 25 10 10 0
31 6 47 14 15 8 48 20 73 26 25 7 55 16 68 21 13 5 31 9 41 9 10 0 32 7 47 15
16 8 39 15 51 15 12 0 25 5 28 10 3 6 21 10 40 10 19 0 37 5 40 10 3 6 21 10
40 10 19 0 37 5 40 10 3 6 18 10 33 10 15 0 40 7 56 15 15 8 43 15 62 15 18 0
36 5 39 10 3 6 24 10 45 10 21 0 42 5 45 10 3 6 22 10 41 10 20 0 45 5 57 12
21 11 76 22 177 34 25 3 49 10 55 15 5 5 32 9 60 9 30 0 59 6 71 15 11 8 42
14 74 15 31 0 60 4 65 9 6 5 39 12 75 15 36 3 99 9 140 15 41 5 127 14 190 20
63 7 124 16 135 21 31 15 257 21 765 21 478 0 656 -7 865 -36 137 -19 253 -33
340 -41 33 -3 64 -10 69 -15 6 -5 30 -9 55 -9 26 -1 57 -7 71 -15 14 -8 46
-14 72 -15 26 0 50 -4 53 -10 3 -5 26 -10 50 -10 24 0 47 -4 50 -10 3 -5 23
-10 43 -10 20 -1 48 -7 62 -15 14 -8 42 -14 62 -15 20 0 40 -4 43 -10 3 -5 21
-10 40 -10 19 0 37 -4 40 -10 3 -5 19 -10 34 -10 16 0 42 -7 57 -15 16 -8 39
-15 51 -15 12 0 25 -4 28 -10 3 -5 21 -10 40 -10 19 0 37 -4 40 -10 3 -5 19
-10 35 -10 16 0 32 -4 35 -10 3 -5 16 -10 29 -10 12 0 31 -7 42 -15 10 -8 31
-15 46 -15 15 0 30 -4 33 -10 3 -5 17 -10 30 -10 13 0 27 -4 30 -10 3 -5 13
-10 22 -10 14 0 66 -20 105 -41 10 -5 27 -9 37 -9 11 0 23 -4 26 -10 3 -5 15
-10 25 -10 10 0 31 -6 47 -14 15 -8 42 -20 58 -26 17 -7 38 -16 47 -21 10 -5
22 -9 28 -9 5 0 35 -12 67 -26 32 -14 67 -30 78 -34 25 -9 134 -59 157 -71 10
-5 25 -9 33 -9 8 0 15 -4 15 -10 0 -5 8 -10 19 -10 10 0 24 -7 31 -15 7 -8 21
-15 31 -15 11 0 19 -4 19 -10 0 -5 6 -10 13 -10 15 0 121 -52 125 -62 2 -5 11
-8 20 -9 10 0 40 -14 67 -29 28 -16 77 -43 110 -60 106 -55 170 -91 185 -104
8 -7 30 -19 48 -27 17 -8 32 -17 32 -21 0 -5 5 -8 10 -8 6 0 36 -16 66 -35 30
-19 57 -35 61 -35 3 0 21 -11 39 -25 18 -14 37 -25 43 -25 6 0 11 -4 11 -10 0
-5 5 -10 11 -10 6 0 33 -16 59 -35 26 -19 51 -35 54 -35 4 0 87 -56 186 -125
98 -69 184 -125 190 -125 6 0 13 -7 16 -15 4 -8 12 -15 20 -15 8 0 14 -4 14
-10 0 -5 5 -10 11 -10 7 0 34 -16 60 -35 27 -19 54 -35 59 -35 6 0 10 -4 10
-10 0 -5 5 -10 12 -10 6 0 26 -11 44 -25 18 -14 37 -25 43 -25 6 0 11 -4 11
-10 0 -5 5 -10 12 -10 6 0 25 -10 42 -23 17 -12 45 -29 61 -37 17 -8 53 -29
82 -47 29 -18 57 -33 63 -33 5 0 10 -4 10 -9 0 -5 8 -11 18 -15 9 -3 58 -28
107 -55 88 -48 420 -215 460 -230 11 -5 45 -20 75 -35 30 -14 61 -26 68 -26 6
0 12 -4 12 -10 0 -5 7 -10 15 -10 8 0 23 -4 33 -9 20 -10 76 -35 112 -49 14
-5 36 -14 50 -19 14 -6 45 -18 70 -28 25 -9 53 -21 62 -26 10 -5 27 -9 37 -9
11 0 23 -4 26 -10 3 -5 15 -10 26 -10 19 0 26 -2 87 -33 19 -9 45 -17 58 -17
13 0 24 -4 24 -10 0 -5 15 -10 34 -10 19 0 38 -4 41 -10 3 -5 16 -10 29 -10
12 0 31 -7 42 -15 10 -8 31 -15 46 -15 15 0 29 -4 32 -9 3 -5 23 -11 43 -14
59 -8 95 -18 130 -33 17 -8 45 -14 61 -14 17 0 34 -4 37 -10 3 -5 23 -10 44
-10 20 0 41 -4 46 -9 6 -5 30 -11 55 -14 48 -6 155 -29 180 -40 15 -6 76 -14
190 -23 36 -3 69 -10 75 -15 5 -5 45 -9 90 -9 50 0 86 -5 93 -12 8 -8 58 -13
140 -16 70 -2 136 -7 147 -13 12 -5 153 -7 350 -5 355 5 592 17 615 31 14 8
64 14 255 31 33 3 69 9 80 14 11 5 43 11 70 14 28 2 82 12 120 21 85 20 157
34 210 42 22 3 44 9 50 14 5 5 23 9 40 9 17 0 40 7 51 15 10 8 33 15 51 15 17
0 35 5 38 10 3 6 21 10 40 10 19 0 37 5 40 10 3 6 18 10 33 10 15 0 36 7 46
15 11 8 32 15 47 15 15 0 31 5 34 10 3 6 17 10 30 10 13 0 27 5 30 10 3 6 19
10 35 10 16 0 31 4 34 9 4 5 32 17 64 26 31 9 68 22 82 27 14 6 34 14 45 18
20 8 91 35 133 51 43 17 68 27 112 47 25 11 63 28 85 37 22 10 62 28 88 41 27
13 55 24 63 24 8 0 14 5 14 10 0 6 11 10 24 10 13 0 26 4 28 8 2 4 62 37 133
72 72 35 132 68 133 72 2 4 12 8 22 8 10 0 22 4 25 10 3 5 23 17 43 27 20 9
39 19 42 22 6 7 47 30 111 63 24 13 46 25 49 28 10 11 90 60 96 60 4 0 22 11
40 25 18 14 36 25 39 25 4 0 36 20 72 45 35 25 68 45 73 45 6 0 10 5 10 10 0
6 4 10 10 10 12 0 184 120 188 131 2 5 9 9 16 9 8 0 24 10 37 23 13 13 40 34
59 47 19 13 40 28 45 34 6 7 26 23 45 36 76 52 273 214 332 273 15 15 31 27
35 27 14 0 33 101 33 171 0 36 4 69 10 75 10 10 28 154 37 294 2 41 9 79 14
84 5 6 9 46 9 91 0 45 4 85 9 91 5 5 12 46 14 91 3 45 8 87 11 92 4 6 12 57
17 113 6 57 15 139 20 183 4 44 12 123 16 175 5 53 13 101 17 109 9 14 23 138
32 276 3 44 10 84 15 89 5 6 9 49 9 97 0 52 4 89 10 91 6 2 16 53 21 113 6 61
15 144 19 185 19 161 31 267 36 318 l6 52 -9679 0 c-5626 0 -9684 -4 -9692 -9z"/>
<path d="M33826 34963 c-4 -4 -87 -11 -184 -15 -238 -9 -560 -39 -584 -54 -12
-8 -85 -19 -213 -30 -33 -3 -64 -10 -70 -15 -5 -5 -26 -9 -48 -9 -21 0 -48 -5
-59 -11 -21 -11 -93 -26 -178 -36 -25 -3 -49 -9 -55 -14 -5 -5 -25 -9 -45 -9
-19 0 -44 -7 -54 -15 -11 -8 -34 -15 -52 -15 -18 0 -36 -4 -39 -10 -3 -5 -24
-10 -45 -10 -21 0 -42 -4 -45 -10 -3 -5 -21 -10 -40 -10 -19 0 -37 -4 -40 -10
-3 -5 -17 -10 -30 -10 -13 0 -39 -6 -57 -14 -51 -21 -102 -36 -126 -36 -11 0
-24 -4 -27 -10 -3 -5 -19 -10 -34 -10 -16 0 -34 -7 -41 -15 -7 -8 -25 -15 -41
-15 -15 0 -31 -4 -34 -10 -3 -5 -19 -10 -35 -10 -16 0 -32 -4 -35 -10 -3 -5
-15 -10 -25 -10 -10 0 -33 -8 -52 -17 -62 -31 -68 -33 -92 -33 -14 0 -28 -4
-31 -10 -3 -5 -17 -10 -31 -10 -13 0 -24 -3 -24 -8 0 -8 -59 -30 -102 -39 -16
-3 -28 -9 -28 -14 0 -5 -9 -9 -20 -9 -11 0 -28 -4 -38 -9 -26 -13 -123 -55
-167 -71 -11 -4 -44 -19 -73 -34 -30 -14 -62 -26 -73 -26 -10 0 -19 -4 -19
-10 0 -5 -5 -10 -12 -10 -6 0 -30 -9 -52 -19 -23 -10 -58 -26 -78 -35 -48 -20
-99 -44 -118 -55 -15 -9 -89 -43 -120 -55 -8 -4 -28 -15 -45 -25 -16 -11 -38
-20 -47 -20 -10 -1 -18 -5 -18 -11 0 -5 -9 -10 -19 -10 -11 0 -23 -4 -26 -10
-3 -5 -34 -23 -68 -40 -34 -17 -102 -53 -152 -80 -49 -27 -115 -61 -145 -76
-30 -15 -68 -38 -85 -49 -16 -12 -46 -29 -65 -39 -19 -9 -53 -28 -75 -42 -22
-14 -48 -27 -57 -31 -10 -3 -18 -9 -18 -14 0 -5 -5 -9 -11 -9 -6 0 -25 -11
-43 -25 -18 -14 -37 -25 -41 -25 -4 0 -23 -11 -41 -25 -18 -14 -37 -25 -43
-25 -6 0 -11 -4 -11 -10 0 -5 -5 -10 -12 -10 -6 0 -25 -10 -42 -23 -17 -12
-43 -29 -58 -36 -16 -8 -28 -18 -28 -23 0 -4 -4 -8 -10 -8 -5 0 -32 -16 -59
-35 -26 -19 -53 -35 -60 -35 -6 0 -11 -4 -11 -8 0 -5 -16 -17 -35 -28 -19 -10
-35 -22 -35 -26 0 -5 -7 -8 -15 -8 -8 0 -15 -4 -15 -10 0 -5 -6 -10 -13 -10
-7 0 -24 -11 -39 -25 -15 -14 -31 -25 -35 -25 -5 0 -26 -16 -48 -35 -22 -19
-45 -35 -52 -35 -6 0 -13 -3 -15 -8 -1 -4 -28 -25 -58 -47 -30 -22 -56 -43
-58 -47 -2 -5 -10 -8 -17 -8 -7 0 -15 -4 -17 -9 -1 -5 -34 -32 -73 -62 -38
-29 -81 -64 -95 -76 -14 -13 -38 -29 -53 -36 l-29 -12 4 -92 c2 -54 9 -98 16
-105 8 -8 12 -45 12 -100 0 -52 4 -88 10 -88 6 0 10 -36 10 -89 0 -50 4 -92 9
-95 5 -3 11 -43 14 -88 4 -46 14 -132 23 -193 8 -60 20 -146 24 -190 5 -44 13
-120 19 -170 5 -49 14 -137 20 -195 6 -58 15 -106 21 -108 6 -2 10 -40 10 -91
0 -48 4 -91 9 -96 5 -6 12 -46 15 -90 10 -156 22 -260 31 -275 5 -8 13 -55 17
-105 5 -49 12 -128 17 -175 5 -47 14 -132 20 -190 6 -58 15 -106 21 -108 6 -2
10 -41 10 -92 0 -49 5 -92 10 -95 6 -3 10 -43 10 -89 0 -45 4 -86 9 -91 5 -6
12 -44 14 -85 8 -121 25 -269 34 -282 4 -7 11 -53 15 -103 4 -49 12 -128 17
-175 5 -47 14 -132 20 -189 6 -58 15 -109 21 -115 5 -5 10 -50 10 -98 0 -52 4
-88 10 -88 6 0 10 -35 10 -84 0 -47 5 -88 10 -91 6 -3 10 -36 10 -73 0 -37 5
-83 12 -102 6 -19 15 -73 19 -120 5 -47 13 -125 18 -175 6 -49 14 -133 19
-186 5 -53 13 -102 16 -108 4 -6 10 -51 12 -99 3 -48 9 -88 15 -90 5 -2 9 -44
9 -93 0 -49 4 -89 9 -89 5 0 11 -37 14 -82 9 -136 25 -277 34 -291 4 -6 11
-50 15 -97 4 -47 12 -123 17 -170 5 -47 14 -134 20 -195 6 -60 15 -111 21
-113 6 -2 10 -40 10 -93 0 -49 4 -89 9 -89 5 0 12 -39 15 -87 8 -142 22 -266
33 -293 6 -14 11 -56 12 -94 1 -39 5 -74 8 -80 4 -6 11 -51 15 -101 5 -49 12
-128 17 -175 5 -47 15 -132 21 -190 6 -58 15 -106 20 -108 6 -2 10 -43 10 -91
0 -48 4 -91 9 -97 5 -5 12 -43 14 -84 9 -135 24 -268 33 -281 4 -8 12 -56 17
-109 4 -52 12 -129 17 -170 4 -41 13 -124 19 -185 5 -60 15 -111 21 -113 6 -2
10 -40 10 -92 0 -49 5 -92 10 -95 6 -3 10 -43 10 -89 0 -45 4 -86 9 -92 5 -5
12 -45 15 -89 3 -44 12 -129 21 -190 9 -60 20 -146 25 -190 5 -44 13 -120 19
-170 5 -49 14 -137 20 -195 6 -58 15 -106 21 -108 6 -2 10 -40 10 -91 0 -48 4
-91 9 -97 5 -5 12 -45 15 -89 10 -157 22 -260 31 -275 10 -15 21 -124 31 -285
3 -49 9 -99 14 -110 5 -11 11 -56 14 -99 2 -43 8 -82 13 -85 4 -3 9 -44 11
-91 2 -47 7 -89 13 -95 5 -5 9 -45 9 -90 0 -45 4 -85 9 -90 5 -6 12 -46 15
-90 7 -119 24 -266 32 -284 4 -9 11 -54 15 -101 5 -47 13 -123 18 -170 5 -47
14 -132 20 -189 6 -58 15 -109 21 -115 5 -5 10 -50 10 -98 0 -48 4 -88 9 -88
5 0 12 -37 14 -82 8 -137 24 -275 33 -289 9 -14 18 -98 29 -274 4 -49 10 -99
15 -110 5 -11 10 -54 13 -96 2 -42 7 -81 11 -87 4 -7 9 -51 12 -99 2 -48 9
-92 14 -97 6 -6 10 -47 10 -93 0 -49 4 -83 10 -83 6 0 10 -32 10 -75 l0 -75
7360 0 c7003 0 7360 1 7361 18 0 16 4 56 30 292 5 52 13 133 17 180 4 47 12
92 17 100 9 15 21 118 31 275 3 44 10 84 15 90 5 5 9 48 9 96 0 51 4 89 10 91
6 2 15 50 21 108 6 58 15 143 20 190 5 47 13 126 17 175 5 50 12 97 16 105 8
18 26 177 33 280 2 41 9 79 14 85 5 5 9 45 9 90 0 45 4 85 9 90 6 6 11 48 13
95 2 47 7 88 11 91 4 3 13 53 18 110 6 57 14 140 19 184 5 44 13 123 17 175 4
52 12 102 18 110 10 15 22 127 31 283 3 48 10 87 15 87 5 0 9 40 9 89 0 53 4
91 10 93 6 2 15 53 21 113 10 105 18 176 38 358 5 45 17 132 26 192 8 61 18
148 21 195 4 47 10 89 15 95 5 5 9 46 9 92 0 49 4 83 10 83 6 0 10 36 10 89 0
53 4 91 10 93 6 2 16 53 21 113 6 61 15 148 20 195 5 47 13 123 17 170 4 47
11 91 16 99 9 13 23 137 33 289 3 45 9 82 14 82 5 0 9 40 9 89 0 49 4 91 10
93 5 2 14 53 20 113 6 61 16 148 21 195 5 47 14 123 19 170 17 159 30 255 40
303 5 26 10 74 10 107 0 32 5 62 10 65 6 3 10 44 10 91 0 49 4 84 10 84 6 0
10 38 10 94 0 56 4 96 10 98 6 2 15 48 21 103 5 55 14 143 20 195 6 52 13 131
17 175 4 44 10 85 14 92 8 12 27 170 35 293 2 41 9 79 14 85 5 5 9 44 9 87 0
43 4 86 9 96 9 16 23 115 43 310 4 45 12 119 18 165 5 45 13 125 18 177 5 52
14 111 21 130 6 19 11 63 11 97 0 34 4 64 9 67 4 3 9 43 10 88 1 46 6 87 11
92 6 6 10 49 10 96 0 50 5 91 11 97 6 6 15 55 20 110 6 54 14 139 20 188 5 50
12 128 15 175 3 47 10 90 14 96 10 11 29 166 37 289 3 39 9 74 14 80 5 5 9 48
9 96 0 48 4 89 9 91 6 2 11 41 12 88 1 47 6 91 12 98 5 7 14 58 19 115 5 56
13 138 18 182 6 44 14 121 19 170 5 50 14 108 20 130 6 22 11 66 11 97 0 31 4
59 9 62 5 3 9 45 10 93 1 49 6 90 11 91 6 2 10 43 10 91 0 48 5 92 10 97 6 6
15 57 21 115 6 57 15 142 20 189 6 47 12 121 15 165 2 44 9 89 14 100 9 20 28
168 37 285 2 36 8 74 13 85 5 11 12 63 15 115 12 199 17 245 27 258 6 7 15 59
20 115 5 56 13 140 19 187 5 47 12 123 15 170 3 47 10 90 15 96 10 12 26 149
36 297 3 42 9 77 14 77 5 0 9 39 9 86 0 47 5 94 10 105 15 28 25 214 12 222
-5 4 -33 -9 -61 -28 -28 -19 -53 -35 -56 -35 -3 0 -27 -16 -54 -35 -26 -19
-52 -35 -56 -35 -5 0 -23 -11 -41 -25 -18 -14 -37 -25 -43 -25 -6 0 -11 -3
-11 -8 0 -4 -17 -15 -37 -25 -38 -17 -73 -37 -83 -47 -6 -6 -68 -40 -140 -76
-30 -16 -57 -31 -60 -34 -3 -3 -19 -12 -35 -21 -17 -8 -39 -20 -50 -26 -11 -6
-38 -20 -60 -31 -22 -11 -85 -43 -139 -71 -55 -28 -105 -51 -113 -51 -7 0 -13
-4 -13 -10 0 -5 -6 -10 -14 -10 -8 0 -47 -16 -87 -36 -41 -20 -83 -40 -94 -44
-11 -4 -47 -20 -80 -35 -33 -15 -71 -32 -85 -38 -14 -5 -38 -15 -55 -22 -16
-7 -43 -18 -60 -25 -16 -7 -38 -16 -47 -21 -10 -5 -24 -9 -31 -9 -13 0 -59
-19 -99 -41 -10 -5 -27 -9 -37 -9 -11 0 -23 -4 -26 -10 -3 -5 -15 -10 -26 -10
-19 0 -26 -2 -87 -33 -19 -9 -42 -17 -52 -17 -10 0 -22 -4 -25 -10 -3 -5 -19
-10 -35 -10 -16 0 -32 -4 -35 -10 -3 -5 -17 -10 -30 -10 -13 0 -36 -6 -52 -14
-38 -19 -95 -36 -121 -36 -11 0 -24 -4 -27 -10 -3 -5 -18 -10 -33 -10 -15 -1
-38 -7 -52 -15 -14 -8 -37 -14 -52 -15 -15 0 -29 -4 -32 -9 -3 -5 -23 -11 -43
-15 -21 -3 -56 -8 -78 -11 -22 -4 -49 -10 -60 -14 -38 -15 -110 -33 -155 -38
-25 -3 -49 -9 -54 -14 -6 -5 -31 -9 -57 -9 -26 0 -51 -4 -54 -10 -3 -5 -26
-10 -51 -10 -25 0 -61 -7 -81 -15 -19 -8 -59 -15 -87 -15 -29 0 -56 -4 -62 -9
-5 -5 -43 -12 -84 -15 -185 -13 -288 -24 -308 -35 -13 -7 -82 -11 -179 -11
-96 0 -163 -4 -169 -10 -18 -18 -853 4 -882 23 -11 8 -115 19 -307 33 -38 3
-74 10 -79 15 -6 5 -37 9 -71 9 -34 0 -66 5 -71 10 -10 10 -96 26 -199 37 -27
2 -54 9 -59 14 -6 5 -29 9 -52 9 -24 0 -46 4 -49 10 -3 5 -28 12 -56 16 -27 4
-52 11 -55 15 -3 5 -23 9 -44 9 -21 0 -41 4 -44 9 -3 5 -23 11 -43 14 -68 10
-124 24 -136 36 -6 6 -24 11 -39 11 -16 0 -36 4 -46 9 -9 5 -37 14 -62 21 -25
6 -58 18 -73 26 -16 8 -39 14 -52 14 -13 0 -27 5 -30 10 -3 6 -19 10 -36 10
-16 0 -29 5 -29 10 0 6 -9 10 -20 10 -17 0 -66 18 -112 41 -10 5 -27 9 -37 9
-11 0 -23 5 -26 10 -3 6 -15 10 -26 10 -10 0 -27 4 -37 10 -9 5 -35 16 -57 26
-22 9 -49 20 -60 24 -11 5 -38 14 -60 21 -22 7 -47 19 -56 26 -8 7 -21 13 -27
13 -7 0 -20 4 -30 9 -9 5 -28 13 -42 19 -30 12 -138 61 -162 73 -10 5 -24 9
-32 9 -7 0 -19 7 -26 15 -7 8 -21 15 -31 15 -11 0 -19 5 -19 10 0 6 -6 10 -13
10 -17 0 -121 51 -125 62 -2 4 -9 8 -15 8 -15 0 -201 93 -205 103 -2 4 -12 7
-22 7 -9 0 -23 7 -30 15 -7 8 -19 15 -26 15 -8 0 -14 5 -14 10 0 6 -7 10 -15
10 -15 0 -78 32 -105 54 -8 7 -41 25 -72 41 -32 16 -58 32 -58 36 0 4 -8 9
-17 12 -10 4 -36 18 -58 32 -22 14 -48 28 -57 31 -10 4 -18 10 -18 15 0 5 -5
9 -10 9 -9 0 -87 47 -100 60 -3 3 -15 11 -27 18 -56 30 -72 40 -149 95 -46 31
-87 57 -93 57 -6 0 -11 5 -11 10 0 6 -6 10 -13 10 -7 0 -23 10 -37 23 -14 12
-37 28 -52 36 -16 8 -28 18 -28 23 0 4 -6 8 -13 8 -7 0 -24 11 -39 25 -15 14
-30 25 -33 25 -4 0 -44 27 -91 60 -46 33 -89 60 -94 60 -6 0 -10 5 -10 10 0 6
-4 10 -10 10 -5 0 -41 20 -80 45 -39 25 -73 45 -77 45 -3 0 -21 11 -39 25 -18
14 -37 25 -43 25 -6 0 -11 5 -11 10 0 6 -9 10 -20 10 -11 0 -20 3 -20 8 0 7
-4 10 -77 46 -21 11 -40 22 -43 26 -3 3 -23 14 -45 25 -22 11 -42 22 -45 25
-3 3 -18 11 -35 19 -16 7 -43 20 -60 29 -16 9 -56 29 -90 45 -33 16 -67 33
-75 38 -8 5 -31 16 -50 25 -19 9 -69 32 -110 51 -41 20 -84 39 -95 43 -11 4
-44 19 -73 34 -30 14 -60 26 -68 26 -8 0 -22 4 -32 9 -9 5 -35 17 -57 26 -22
9 -48 20 -57 25 -10 6 -27 10 -38 10 -11 0 -20 5 -20 10 0 6 -11 10 -24 10
-14 0 -28 5 -31 10 -3 6 -16 10 -29 10 -12 0 -31 7 -42 15 -10 8 -29 15 -41
15 -12 0 -25 5 -28 10 -3 6 -17 10 -30 10 -13 0 -27 5 -30 10 -3 6 -17 10 -29
10 -13 0 -37 7 -52 15 -16 8 -39 15 -51 15 -13 0 -23 5 -23 10 0 6 -15 10 -34
10 -19 0 -37 4 -40 9 -3 5 -20 11 -38 14 -56 9 -123 28 -132 38 -6 5 -26 9
-46 9 -20 0 -40 4 -46 9 -5 5 -27 11 -49 15 -99 14 -122 18 -152 32 -17 8 -49
14 -70 14 -21 0 -43 4 -48 9 -6 5 -32 12 -60 15 -27 3 -81 9 -120 13 -38 5
-76 12 -83 17 -16 10 -157 27 -272 32 -47 3 -94 9 -105 14 -31 15 -835 36
-849 23z m-2662 -6018 c11 -8 30 -15 43 -15 13 0 31 -4 41 -9 9 -5 34 -17 54
-26 56 -24 178 -147 193 -194 3 -12 11 -21 16 -21 5 0 9 -9 9 -20 0 -11 5 -20
10 -20 6 0 10 -16 10 -35 0 -19 4 -35 9 -35 5 0 12 -35 15 -77 12 -188 26
-307 35 -316 6 -6 11 -53 11 -109 0 -54 4 -98 9 -98 5 0 12 -44 14 -97 9 -173
25 -335 34 -342 5 -3 10 -51 12 -106 1 -55 6 -102 11 -105 5 -3 11 -48 14
-100 5 -91 10 -144 35 -405 6 -66 16 -129 21 -140 5 -11 11 -63 14 -115 3 -52
10 -138 15 -190 5 -52 14 -148 20 -214 6 -65 15 -124 20 -130 5 -6 12 -54 15
-106 3 -52 9 -138 15 -190 5 -52 14 -148 19 -212 6 -64 14 -123 19 -130 4 -7
11 -58 15 -113 4 -55 12 -145 17 -200 6 -55 15 -147 20 -205 6 -58 18 -161 27
-230 9 -69 20 -168 25 -220 5 -52 13 -138 18 -190 5 -52 14 -148 19 -212 6
-64 14 -123 19 -130 4 -7 11 -56 15 -108 4 -52 10 -133 14 -178 4 -56 3 -87
-5 -95 -6 -6 -11 -24 -11 -39 0 -31 -67 -178 -81 -178 -5 0 -9 -6 -9 -14 0
-19 -98 -104 -158 -136 -84 -46 -128 -55 -260 -54 -78 1 -127 5 -134 12 -7 7
-20 12 -29 12 -62 0 -218 136 -259 226 -11 23 -24 46 -30 49 -5 3 -10 19 -10
36 0 16 -4 29 -10 29 -6 0 -10 30 -10 70 0 39 -4 70 -9 70 -5 0 -11 42 -14 93
-4 50 -14 148 -22 217 -9 69 -19 168 -21 220 -3 52 -9 104 -14 115 -5 11 -11
54 -14 95 -9 161 -26 321 -36 339 -5 11 -10 63 -10 115 0 53 -4 96 -9 96 -5 0
-11 39 -14 88 -11 188 -27 336 -37 346 -5 5 -10 53 -10 106 0 53 -4 100 -9
105 -5 6 -12 53 -15 105 -13 205 -25 323 -35 333 -6 6 -11 53 -11 109 0 59 -4
98 -10 98 -6 0 -10 39 -10 98 0 54 -4 102 -9 108 -5 5 -11 50 -14 99 -8 155
-28 340 -38 343 -5 2 -9 47 -9 101 0 53 -4 101 -9 107 -5 5 -11 50 -14 99 -10
176 -27 330 -37 333 -6 2 -10 47 -10 108 0 57 -4 104 -9 104 -5 0 -12 46 -14
103 -10 189 -25 331 -36 335 -7 2 -11 41 -11 102 0 55 -4 102 -10 105 -6 4
-10 53 -10 115 0 62 4 111 10 115 6 3 10 21 10 39 0 19 7 39 15 46 8 7 15 19
15 26 0 43 168 234 205 234 8 0 15 5 15 10 0 6 9 10 19 10 11 0 23 5 26 10 3
6 18 10 33 10 15 1 38 7 52 15 35 20 188 20 214 0z m791 -7375 c3 -5 19 -10
35 -10 46 0 159 -67 220 -129 57 -59 110 -148 110 -186 0 -14 4 -25 9 -25 4 0
11 -30 14 -66 4 -37 11 -71 16 -78 5 -6 12 -56 15 -111 3 -55 9 -143 15 -195
5 -52 14 -149 19 -215 6 -67 15 -121 21 -123 7 -2 11 -41 11 -102 0 -55 4
-102 10 -105 6 -3 10 -39 10 -80 0 -41 -4 -77 -10 -80 -5 -3 -10 -23 -10 -44
0 -22 -6 -44 -15 -51 -9 -7 -13 -15 -10 -18 11 -11 -53 -110 -108 -168 -58
-62 -148 -115 -242 -143 -68 -21 -282 -3 -306 25 -6 8 -20 14 -30 14 -11 0
-19 5 -19 10 0 6 -7 10 -15 10 -8 0 -25 8 -37 18 -55 44 -109 97 -121 117 -83
151 -88 169 -106 404 -6 68 -14 127 -20 130 -5 4 -12 52 -15 109 -3 56 -9 148
-12 205 -3 56 -10 106 -15 112 -5 5 -9 41 -9 80 0 38 -5 88 -11 110 -20 73
-21 120 -5 159 9 21 16 51 16 67 0 16 5 29 10 29 6 0 10 8 10 18 0 22 22 72
33 72 4 0 7 7 7 16 0 19 118 144 137 144 7 0 13 4 13 9 0 5 8 11 18 15 9 3 24
9 32 14 41 24 62 32 82 32 13 0 30 5 38 10 20 13 207 13 215 0z"/>
</g>
</svg>
