<svg viewBox="0 0 30 30" xmlns="http://www.w3.org/2000/svg">
    <g>
        <path clip-rule="evenodd"
              d="M18.2776 20.7359C18.7404 21.3133 19.2956 21.9844 19.2956 21.9844C22.5251 21.8809 23.8579 19.8584 23.9891 19.6592C23.9964 19.6481 24 19.6427 24 19.6435C24 14.6651 21.7789 10.6232 21.7789 10.6232C19.5733 8.95331 17.4602 9.00013 17.4602 9.00013L17.2442 9.24983C19.8663 10.0457 21.0848 11.2162 21.0848 11.2162C19.4807 10.3423 17.9075 9.90529 16.4422 9.73362C15.3316 9.60877 14.2674 9.63998 13.3265 9.76483C13.2457 9.76483 13.1767 9.77672 13.0989 9.79013C13.0875 9.79208 13.076 9.79406 13.0643 9.79604C12.5244 9.85847 11.2134 10.0457 9.56298 10.7792C8.99229 11.0289 8.65296 11.2162 8.65296 11.2162C8.65296 11.2162 9.91774 9.98332 12.6941 9.18741L12.5398 9.00013C12.5398 9.00013 10.4422 8.95331 8.22108 10.6232C8.22108 10.6232 6 14.6651 6 19.6435C6 19.6435 7.29563 21.8908 10.7044 22C10.7044 22 11.2751 21.3133 11.7378 20.7203C9.77892 20.1273 9.03856 18.8944 9.03856 18.8944C9.03856 18.8944 9.1928 19.0036 9.47044 19.1597C9.47997 19.1597 9.4895 19.1657 9.50268 19.1739C9.51082 19.179 9.52035 19.1849 9.53213 19.1909C9.55527 19.2065 9.57841 19.2182 9.60154 19.2299C9.62468 19.2416 9.64782 19.2533 9.67095 19.2689C10.0566 19.4874 10.4422 19.6591 10.7969 19.7995C11.4293 20.0648 12.1851 20.2989 13.0643 20.4706C14.2211 20.6891 15.5784 20.7671 17.0591 20.4862C17.7841 20.3458 18.5244 20.1429 19.2956 19.8151C19.8355 19.6123 20.437 19.3158 21.0694 18.8944C21.0694 18.8944 20.2982 20.1585 18.2776 20.7359ZM16.1796 16.1876C16.1796 15.2722 16.8737 14.5369 17.7529 14.5369C18.6166 14.5369 19.3261 15.2722 19.3261 16.1876C19.3261 17.1029 18.632 17.8382 17.7529 17.8382C16.8891 17.8382 16.1796 17.1029 16.1796 16.1876ZM10.5498 16.1876C10.5498 15.2722 11.2439 14.5369 12.123 14.5369C13.0022 14.5369 13.7117 15.2722 13.6963 16.1876C13.6963 17.1029 13.0022 17.8382 12.123 17.8382C11.2593 17.8382 10.5498 17.1029 10.5498 16.1876Z"
              fill="#FFF"/>
    </g>
</svg>
