<svg xmlns="http://www.w3.org/2000/svg" version="1.1" x="" y="0" viewBox="-62 -2 520 520.998">
    <g stroke="black" stroke-width="4px">
        <path d="M258.063 249.406a7.5 7.5 0 0 0-7.5 7.504v12.45a7.5 7.5 0 1 0 15 0v-12.45a7.5 7.5 0 0 0-7.5-7.504zM134.434 249.406c-4.141 0-7.5 3.36-7.5 7.504v12.45a7.503 7.503 0 1 0 15.004 0v-12.45a7.504 7.504 0 0 0-7.504-7.504zM196.25 245.246c-12.43 0-22.54 11.961-22.54 26.66s10.11 26.656 22.54 26.656c12.426 0 22.535-11.957 22.535-26.656s-10.11-26.66-22.535-26.66zm0 38.316c-3.566 0-7.54-4.789-7.54-11.656 0-6.87 3.974-11.656 7.54-11.656 3.563 0 7.535 4.785 7.535 11.656 0 6.867-3.972 11.656-7.535 11.656zm0 0"
              fill="#000000" opacity="1" class=""></path>
        <path d="M397.746 51.3a7.502 7.502 0 0 0-10.18 2.981 7.502 7.502 0 0 0 2.98 10.18c2.735 1.496 4.368 4.25 4.368 7.363s-1.633 5.867-4.367 7.364l-10.77 5.89a71.385 71.385 0 0 0-28.433 28.434l-5.89 10.77c-1.497 2.734-4.247 4.363-7.36 4.363-3.117 0-5.871-1.63-7.364-4.364l-5.89-10.77a71.37 71.37 0 0 0-28.438-28.433l-10.77-5.89c-2.73-1.497-4.362-4.25-4.362-7.364s1.632-5.867 4.363-7.363l10.77-5.89a71.394 71.394 0 0 0 28.437-28.434l5.89-10.77c1.493-2.734 4.247-4.367 7.364-4.367 3.113 0 5.863 1.633 7.36 4.367l5.89 10.77a71.49 71.49 0 0 0 12.344 16.422 7.502 7.502 0 0 0 10.609-.032 7.502 7.502 0 0 0-.035-10.609 56.45 56.45 0 0 1-9.754-12.98l-5.89-10.77C354.448 4.551 346.777 0 338.093 0c-8.688 0-16.36 4.55-20.528 12.168l-5.89 10.773a56.427 56.427 0 0 1-22.469 22.47l-9.633 5.269-45.699-37.278c-21.805-17.785-53.453-17.785-75.258 0L29.781 118.5C11.171 133.68.5 156.16.5 180.172v97.695c0 4.14 3.355 7.5 7.5 7.5s7.5-3.36 7.5-7.5v-97.695c0-7.16 1.18-14.149 3.41-20.742l54.613 25.93V326.7L18.91 352.632a64.672 64.672 0 0 1-3.41-20.746V308.77c0-4.141-3.355-7.5-7.5-7.5s-7.5 3.359-7.5 7.5v23.117c0 24.015 10.672 46.496 29.281 61.675l15.016 12.25a36.623 36.623 0 0 1-7.543 5.5l-7.426 4.063a18.45 18.45 0 0 0-9.605 16.2 18.45 18.45 0 0 0 9.605 16.195l7.426 4.062a36.591 36.591 0 0 1 14.574 14.574l4.063 7.43a18.455 18.455 0 0 0 16.199 9.601c6.75 0 12.957-3.68 16.195-9.601l4.063-7.43a36.543 36.543 0 0 1 11.343-12.554l54.93 44.808c10.902 8.895 24.262 13.336 37.629 13.336 13.36 0 26.727-4.445 37.629-13.336l128.836-105.097c18.61-15.184 29.281-37.66 29.281-61.676V180.172c0-23.11-9.89-44.797-27.223-59.93a56.44 56.44 0 0 1 22.204-22.004l10.77-5.89c7.62-4.168 12.167-11.84 12.167-20.524 0-8.683-4.547-16.355-12.168-20.523zm-128.988 9.915c-1.617 3.203-2.488 6.808-2.488 10.61 0 8.687 4.546 16.359 12.168 20.523l10.769 5.89a56.446 56.446 0 0 1 22.473 22.473l5.89 10.77c4.164 7.62 11.836 12.167 20.524 12.167 7.8 0 14.777-3.68 19.136-9.949a64.43 64.43 0 0 1 9.922 12.18l-54.613 25.93L203.75 83.063V15.68a44.266 44.266 0 0 1 20.645 9.343zm108.238 118.957v151.715a64.69 64.69 0 0 1-3.41 20.746l-54.613-25.934V185.36l54.613-25.93a64.666 64.666 0 0 1 3.41 20.743zM196.25 415.758 88.523 327.883V184.18L196.25 96.305l107.723 87.875v143.703zM39.262 130.125 168.105 25.023a44.266 44.266 0 0 1 20.645-9.343v67.382L79.957 171.805l-54.613-25.926a64.752 64.752 0 0 1 13.918-15.754zm39.926 329.082-4.063 7.43c-.855 1.566-2.27 1.8-3.035 1.8-.77 0-2.18-.234-3.04-1.8l-4.062-7.43a51.579 51.579 0 0 0-20.535-20.535l-7.43-4.063c-1.562-.855-1.796-2.27-1.796-3.035s.23-2.18 1.796-3.035l7.43-4.062a51.579 51.579 0 0 0 20.535-20.536l4.063-7.43c.86-1.566 2.273-1.8 3.039-1.8s2.18.234 3.035 1.8l4.063 7.43a51.579 51.579 0 0 0 20.535 20.536l7.43 4.062c1.566.856 1.796 2.27 1.796 3.035s-.23 2.18-1.797 3.035l-7.43 4.063a51.579 51.579 0 0 0-20.534 20.535zm38.214-13.527a18.453 18.453 0 0 0 6.551-14.106 18.45 18.45 0 0 0-9.605-16.195l-7.426-4.063a36.591 36.591 0 0 1-14.574-14.574l-4.063-7.426a18.45 18.45 0 0 0-16.195-9.605c-13.727 0-18.54 13.883-18.54 13.883L39.263 381.94a64.752 64.752 0 0 1-13.918-15.753l54.613-25.934L188.75 429v67.387a44.254 44.254 0 0 1-20.648-9.352zm235.832-63.743-128.84 105.098c-6.105 4.985-13.246 8.098-20.644 9.348V429l108.79-88.746 54.612 25.93a64.752 64.752 0 0 1-13.918 15.754zm0 0"
              fill="#000000" opacity="1" class=""></path>
    </g>
</svg>